<?xml version="1.0" encoding="UTF-8" standalone="no"?>
<!-- Created with Inkscape (http://www.inkscape.org/) -->

<svg
   version="1.1"
   id="svg148"
   width="240"
   height="70"
   viewBox="0 0 240 69.999999"
   xmlns="http://www.w3.org/2000/svg"
   xmlns:svg="http://www.w3.org/2000/svg">
  <defs
     id="defs152">
    <clipPath
       clipPathUnits="userSpaceOnUse"
       id="clipPath166">
      <path
         d="M 0,99.2126 H 566.929 V 0 H 0 Z"
         id="path164" />
    </clipPath>
    <clipPath
       clipPathUnits="userSpaceOnUse"
       id="clipPath364">
      <path
         d="M 0,0 H 566.929 V 99.213 H 0 Z"
         id="path362" />
    </clipPath>
    <clipPath
       clipPathUnits="userSpaceOnUse"
       id="clipPath2394">
      <path
         d="m 37.520349,92.013586 c -1.037505,1.078192 -6.387777,4.023338 -13.025222,4.023338 -6.637444,0 -11.501328,-2.79997 -14.5602113,-5.962419 -3.0598081,-3.163373 -5.7562121,-8.556181 -5.7562121,-14.726656 0,-6.170474 3.2465961,-13.746482 10.0911714,-18.054625 0,0 0.393919,-0.04161 0.103566,0.269085 -0.290354,0.311622 -4.199955,2.967339 -6.0983488,9.956167 -2.1563833,7.944035 0.9958943,15.701282 3.4019448,18.231242 1.478584,1.555333 4.355303,5.184752 10.287206,6.761353 5.931904,1.576601 11.739899,0.248742 15.224141,-1.203026 0,0 1.36947,-0.373575 0.331965,0.705541 M 4.3349767,84.111162 c 0.3726511,0.891404 -0.3735759,0.145177 -0.3735759,0.145177 0,0 -3.95121199,-5.019232 -3.96138360672,-12.693257 C -0.01570258,59.740885 9.745354,49.888284 20.772314,49.888284 c 11.026036,0 15.918586,7.052632 16.437338,7.622243 0.517828,0.570535 0.650984,1.613588 -0.518752,0.725883 C 27.875804,51.548108 20.149996,52.014153 12.371481,56.525729 4.5938906,61.03638 2.2608909,70.266663 2.2608909,74.881804 c 0,4.614217 1.7005099,8.337954 2.0740858,9.229358"
         style="fill:#b88737;fill-opacity:1;fill-rule:nonzero;stroke:none;stroke-width:0.92469"
         id="path2396" />
    </clipPath>
  </defs>
  <g
     id="g156"
     transform="matrix(1.3333333,0,0,-1.3333333,0,132.28347)">
    <g
       id="g2391"
       clip-path="url(#clipPath2394)"
       style="fill:#b3884c;fill-opacity:1">
      <g
         id="g676"
         transform="matrix(0.92469272,0,0,0.92469272,-304.29674,24.680436)"
         style="fill:#b3884c;fill-opacity:1">
        <path
           d="m 105.14169,2.7667841 h 566.929 V 101.97978 h -566.929 z"
           id="path674"
           style="fill:#b3884c;fill-opacity:1" />
      </g>
    </g>
    <path
       style="fill:#7d3139;fill-opacity:1;fill-rule:nonzero;stroke:none;stroke-width:0.924693"
       d="m 37.4166,83.454872 c 0,1.215971 -0.786913,2.237756 -1.874352,2.612257 -2.406975,1.603417 -8.824342,4.842615 -17.103116,0.784139 C 7.860647,81.666516 8.1722684,69.532698 12.838268,63.517572 17.505192,57.503371 27.461359,54.39178 36.27553,60.19885 l -0.0065,0.0111 c 0.836847,0.478066 1.407382,1.368545 1.407382,2.400502 0,1.532216 -1.242787,2.774079 -2.775003,2.774079 -0.759173,0 -1.447144,-0.306074 -1.948327,-0.801709 -1.189155,-0.676875 -4.666,-2.58914 -6.923175,-3.139332 -3.891107,-0.94781 -7.505731,0.747152 -9.58259,2.282142 -2.163781,1.599718 -4.381195,4.948955 -4.562434,9.063838 -0.18124,4.096389 3.050561,8.485905 5.723848,10.162373 5.496373,3.449104 11.723254,1.436972 15.307363,-1.658899 0.0148,-0.01295 0.02682,-0.01572 0.04069,-0.02682 0.46882,-0.361555 1.048602,-0.58533 1.685715,-0.58533 1.532216,0 2.774078,1.242787 2.774078,2.774078"
       id="path2433" />
    <path
       style="fill:#7d3139;fill-opacity:1;fill-rule:nonzero;stroke:none;stroke-width:0.924693"
       d="m 22.898,66.629163 c 3.780144,0 6.844576,3.064432 6.844576,6.844576 0,3.780143 -3.064432,6.844575 -6.844576,6.844575 -3.780144,0 -6.844576,-3.064432 -6.844576,-6.844575 0,-3.780144 3.064432,-6.844576 6.844576,-6.844576"
       id="path368" />
    <path
       d="m 49.886543,89.215132 h 0.86925 v 2.767336 h 2.25381 v 0.764049 h -2.25381 v 1.776836 h 2.35812 v 0.764049 h -3.22737 z m 3.411027,0 h 0.913827 l 0.616945,1.531664 h 2.975956 l 0.617837,-1.531664 h 0.947705 l -2.565848,6.07227 h -0.913827 z m 4.228568,2.244003 h -2.418744 l 1.208926,3.011618 z m 6.986098,3.673139 c -0.435071,0.189898 -0.895997,0.259438 -1.365838,0.259438 -1.853509,0 -3.209539,-1.242805 -3.209539,-3.114145 0,-1.931964 1.277575,-3.166745 3.200624,-3.166745 0.356615,0 0.922742,0.02586 1.383668,0.217535 l -0.05171,0.842504 c -0.304907,-0.182765 -0.887973,-0.295099 -1.323044,-0.295099 -1.261527,0 -2.28858,0.948597 -2.28858,2.375951 0,1.365837 0.930767,2.375951 2.332266,2.375951 0.443986,0 0.870141,-0.113226 1.252612,-0.339677 z m 5.778062,0.155128 h -0.86925 v -3.445797 c 0,-1.166133 -0.365531,-1.965843 -1.487978,-1.965843 -1.123339,0 -1.48887,0.79971 -1.48887,1.965843 v 3.445797 H 65.57495 V 91.72838 c 0,-1.705514 0.860335,-2.617558 2.35812,-2.617558 1.496893,0 2.357228,0.912044 2.357228,2.617558 z m 1.549494,-6.07227 h 3.410136 v 0.76494 h -2.540886 v 5.30733 h -0.86925 z m 5.090686,0 h 0.86925 v 5.308221 h 1.888279 v 0.764049 h -4.645808 v -0.764049 h 1.888279 z m 2.480261,0 h 0.912936 l 0.617836,1.531664 h 2.975065 l 0.617836,-1.531664 h 0.948597 l -2.56674,6.07227 h -0.912936 z m 4.227676,2.244003 h -2.418744 l 1.209818,3.011618 z m 2.671942,-2.244003 h 1.791993 c 2.001504,0 3.236285,1.052016 3.236285,3.08829 0,1.87134 -1.434485,2.98398 -3.236285,2.98398 h -1.791993 z m 0.86925,5.308221 h 1.018137 c 1.253504,0 2.219932,-0.836263 2.219932,-2.254701 0,-1.566433 -0.827348,-2.28858 -2.324242,-2.28858 h -0.913827 z m 7.832168,-5.308221 h 1.791993 c 2.001504,0 3.236282,1.052016 3.236282,3.08829 0,1.87134 -1.434483,2.98398 -3.236282,2.98398 h -1.791993 z m 0.86925,5.308221 h 1.018137 c 1.253504,0 2.219932,-0.836263 2.219932,-2.254701 0,-1.566433 -0.827348,-2.28858 -2.324242,-2.28858 h -0.913827 z m 5.508815,-5.308221 h 3.40122 v 0.76494 h -2.53197 v 2.002396 h 2.30552 v 0.764049 h -2.30552 v 1.776836 h 2.53197 v 0.764049 h -3.40122 z"
       style="fill:#1a1a1a;fill-opacity:1;fill-rule:nonzero;stroke:none;stroke-width:0.891539"
       id="path372"
       clip-path="none" />
    <path
       d="m 50.366905,50.777778 h 7.948068 v 1.788427 h -5.91536 v 4.675229 h 5.386677 v 1.789318 h -5.386677 v 4.146546 h 5.91536 v 1.788427 h -7.948068 z m 21.160671,13.822416 c -1.016354,0.447553 -2.094224,0.609813 -3.191708,0.609813 -4.329312,0 -7.500515,-2.906417 -7.500515,-7.276739 0,-4.512969 2.988437,-7.399772 7.480009,-7.399772 0.833589,0 2.154849,0.06152 3.23272,0.508177 l -0.122141,1.972084 c -0.711448,-0.427047 -2.073719,-0.690942 -3.090073,-0.690942 -2.947427,0 -5.345666,2.215473 -5.345666,5.548937 0,3.191708 2.174463,5.549828 5.447301,5.549828 1.03686,0 2.032708,-0.264787 2.926922,-0.793469 z m 3.88176,-6.728442 c 0,2.886802 1.545036,5.569442 4.675229,5.549828 3.131084,0.01961 4.675229,-2.663026 4.675229,-5.549828 0,-2.825287 -1.402391,-5.548937 -4.675229,-5.548937 -3.271947,0 -4.675229,2.72365 -4.675229,5.548937 m -2.153958,0 c 0,-4.308807 2.499875,-7.338256 6.829187,-7.338256 4.330203,0 6.830078,3.029449 6.830078,7.338256 0,4.208062 -2.52038,7.338255 -6.830078,7.338255 -4.308807,0 -6.829187,-3.130193 -6.829187,-7.338255 M 89.78094,50.777778 h 2.032708 v 11.667567 h 0.04101 l 6.422645,-11.667567 h 2.602407 V 64.965725 H 98.846997 V 53.54244 h -0.04101 L 92.545601,64.965725 H 89.78094 Z m 16.11902,7.093974 c 0,2.886802 1.54504,5.569442 4.67523,5.549828 3.13019,0.01961 4.67523,-2.663026 4.67523,-5.549828 0,-2.825287 -1.40239,-5.548937 -4.67523,-5.548937 -3.27284,0 -4.67523,2.72365 -4.67523,5.548937 m -2.15485,0 c 0,-4.308807 2.50077,-7.338256 6.83008,-7.338256 4.32931,0 6.83008,3.029449 6.83008,7.338256 0,4.208062 -2.52038,7.338255 -6.83008,7.338255 -4.3097,0 -6.83008,-3.130193 -6.83008,-7.338255 m 5.48831,8.130833 h 1.36227 l 2.66303,2.926921 h -2.21637 z m 11.07826,-15.224807 h 2.03271 v 12.27738 h 0.041 l 4.69574,-12.27738 h 1.99169 l 4.69574,12.27738 h 0.0401 v -12.27738 h 2.03271 v 14.187947 h -3.35397 l -4.37033,-11.789708 -4.45145,11.789708 h -3.35397 z m 19.16809,0 h 2.0327 v 14.187947 h -2.0327 z m 15.61173,13.822416 c -1.01635,0.447553 -2.09422,0.609813 -3.19171,0.609813 -4.32931,0 -7.50051,-2.906417 -7.50051,-7.276739 0,-4.512969 2.98843,-7.399772 7.48001,-7.399772 0.83358,0 2.15484,0.06152 3.23271,0.508177 l -0.12214,1.972084 c -0.71144,-0.427047 -2.07371,-0.690942 -3.09007,-0.690942 -2.94743,0 -5.34567,2.215473 -5.34567,5.548937 0,3.191708 2.17447,5.549828 5.44731,5.549828 1.03686,0 2.0327,-0.264787 2.92692,-0.793469 z m 0.89421,-13.822416 h 2.13435 l 1.4434,3.577745 h 6.95133 l 1.4434,-3.577745 h 2.21547 l -5.99649,14.187947 h -2.13434 z m 9.87914,5.244031 h -5.65146 l 2.82529,7.033349 z m 13.08957,8.680021 c -0.97534,0.345917 -2.09333,0.508177 -3.02855,0.508177 -2.56139,0 -4.55309,-1.341766 -4.55309,-3.862146 0,-4.411334 6.09812,-3.536734 6.09812,-6.707937 0,-1.667178 -1.62616,-2.317109 -2.78516,-2.317109 -1.03597,0 -2.2556,0.406541 -2.94743,0.690942 l -0.20327,-1.890062 c 0.93522,-0.304906 1.91146,-0.590199 2.90731,-0.590199 2.84579,0 5.1834,1.200011 5.1834,4.228568 0,4.675229 -6.09812,4.044912 -6.09812,6.768562 0,1.484412 1.34176,1.890954 2.47937,1.890954 1.05736,0 1.62616,-0.183657 2.66302,-0.590199 z"
       style="fill:#1a1a1a;fill-opacity:1;fill-rule:nonzero;stroke:none;stroke-width:0.891539"
       id="path376"
       clip-path="none" />
    <path
       d="m 60.22554,84.855954 c -1.016354,0.447552 -2.093333,0.609812 -3.191709,0.609812 -4.329312,0 -7.500515,-2.906416 -7.500515,-7.276738 0,-4.512969 2.988438,-7.399772 7.480902,-7.399772 0.832697,0 2.153957,0.06152 3.231827,0.508177 l -0.12214,1.972084 c -0.711448,-0.427047 -2.073719,-0.690943 -3.090074,-0.690943 -2.947427,0 -5.345666,2.215474 -5.345666,5.548937 0,3.191709 2.175355,5.549829 5.447302,5.549829 1.036859,0 2.032708,-0.264787 2.927813,-0.79347 z m 2.459755,-13.822416 h 2.032709 v 14.187947 h -2.032709 z m 5.752208,0 h 7.948068 v 1.788426 h -5.91536 v 4.675229 h 5.386677 v 1.789319 h -5.386677 v 4.146546 h 5.91536 v 1.788427 h -7.948068 z m 11.179895,0 h 2.032709 v 11.667567 h 0.04101 l 6.422644,-11.667567 h 2.602402 V 85.221485 H 88.683456 V 73.798199 h -0.04101 L 82.38206,85.221485 h -2.764662 z m 24.656392,13.822416 c -1.01635,0.447552 -2.09333,0.609812 -3.19171,0.609812 -4.329308,0 -7.500511,-2.906416 -7.500511,-7.276738 0,-4.512969 2.988438,-7.399772 7.480901,-7.399772 0.8327,0 2.15396,0.06152 3.23183,0.508177 l -0.12214,1.972084 c -0.71145,-0.427047 -2.07372,-0.690943 -3.09008,-0.690943 -2.947423,0 -5.345662,2.215474 -5.345662,5.548937 0,3.191709 2.175355,5.549829 5.447302,5.549829 1.03686,0 2.03271,-0.264787 2.92781,-0.79347 z m 2.45976,-13.822416 h 2.03271 v 14.187947 h -2.03271 z m 4.08592,0 h 2.13345 l 1.4434,3.577745 h 6.95222 l 1.4434,-3.577745 h 2.21548 l -5.99649,14.187947 h -2.13435 z m 9.87825,5.244031 h -5.65057 l 2.82528,7.033348 z m 13.09046,8.68002 c -0.97534,0.345917 -2.09333,0.508177 -3.02855,0.508177 -2.5614,0 -4.55309,-1.341765 -4.55309,-3.862145 0,-4.411334 6.09812,-3.536734 6.09812,-6.707937 0,-1.667178 -1.62616,-2.31711 -2.78517,-2.31711 -1.03685,0 -2.25648,0.406542 -2.94742,0.690943 l -0.20327,-1.890062 c 0.93522,-0.304906 1.91056,-0.590199 2.9073,-0.590199 2.8458,0 5.18341,1.200011 5.18341,4.228568 0,4.675229 -6.09812,4.044911 -6.09812,6.768562 0,1.484412 1.34087,1.890954 2.47937,1.890954 1.05736,0 1.62616,-0.183657 2.66302,-0.590199 z"
       style="fill:#1a1a1a;fill-opacity:1;fill-rule:nonzero;stroke:none;stroke-width:0.891539"
       id="path380"
       clip-path="none" />
  </g>
</svg>
